<svg width="1846" height="1034" viewBox="0 0 1846 1034" fill="none" xmlns="http://www.w3.org/2000/svg">
<rect x="2.5" y="2.5" width="1841" height="1029" rx="52.5" fill="#2C292D" stroke="#BABABA" stroke-width="5"/>
<path d="M847 586C868.5 556.322 939.5 520.214 999 586" stroke="#BABABA" stroke-width="5"/>
<path d="M997.2 586.5L1841 586.5" stroke="#BABABA" stroke-width="5"/>
<path d="M5 586.5L848.8 586.5" stroke="#BABABA" stroke-width="5"/>
<path d="M999 337C977.5 366.678 906.5 402.786 847 337" stroke="#BABABA" stroke-width="5"/>
<path d="M848.8 337L5 337" stroke="#BABABA" stroke-width="5"/>
<path d="M1841 337L997.2 337" stroke="#BABABA" stroke-width="5"/>
<path d="M847 837C868.5 807.322 939.5 771.214 999 837" stroke="#BABABA" stroke-width="5"/>
<path d="M997.2 836.5L1841 836.5" stroke="#BABABA" stroke-width="5"/>
<path d="M5 836.5L848.8 836.5" stroke="#BABABA" stroke-width="5"/>
<path d="M847 594.593V88M999 594.593V88M847 593.646V837M999 593.646V837" stroke="#BABABA" stroke-width="4"/>
<path d="M999 87C977.5 116.678 906.5 152.786 847 87" stroke="#BABABA" stroke-width="5"/>
<path d="M848.8 87.5H5" stroke="#BABABA" stroke-width="5"/>
<path d="M1841 87.5H997.2" stroke="#BABABA" stroke-width="5"/>
</svg>
